<?xml version="1.0" encoding="UTF-8" standalone="no"?>
<!-- Created with Inkscape (http://www.inkscape.org/) -->

<svg
   xmlns:dc="http://purl.org/dc/elements/1.1/"
   xmlns:cc="http://creativecommons.org/ns#"
   xmlns:rdf="http://www.w3.org/1999/02/22-rdf-syntax-ns#"
   xmlns:svg="http://www.w3.org/2000/svg"
   xmlns="http://www.w3.org/2000/svg"
   xmlns:sodipodi="http://sodipodi.sourceforge.net/DTD/sodipodi-0.dtd"
   xmlns:inkscape="http://www.inkscape.org/namespaces/inkscape"
   width="70"
   height="210"
   viewBox="0 0 18.520832 55.562501"
   version="1.1"
   id="svg8"
   inkscape:version="0.92.3 (2405546, 2018-03-11)"
   sodipodi:docname="donkz_logo.svg"
   inkscape:export-filename="C:\Users\D074106\Desktop\donkz_logo.png"
   inkscape:export-xdpi="100"
   inkscape:export-ydpi="100">
  <defs
     id="defs2" />
  <sodipodi:namedview
     id="base"
     pagecolor="#ffffff"
     bordercolor="#666666"
     borderopacity="1.0"
     inkscape:pageopacity="0.0"
     inkscape:pageshadow="2"
     inkscape:zoom="2"
     inkscape:cx="-93.87645"
     inkscape:cy="83.491141"
     inkscape:document-units="mm"
     inkscape:current-layer="layer1"
     showgrid="false"
     units="px"
     showguides="true"
     inkscape:guide-bbox="true"
     inkscape:window-width="1920"
     inkscape:window-height="1001"
     inkscape:window-x="-9"
     inkscape:window-y="-9"
     inkscape:window-maximized="1" />
  <metadata
     id="metadata5">
    <rdf:RDF>
      <cc:Work
         rdf:about="">
        <dc:format>image/svg+xml</dc:format>
        <dc:type
           rdf:resource="http://purl.org/dc/dcmitype/StillImage" />
        <dc:title></dc:title>
      </cc:Work>
    </rdf:RDF>
  </metadata>
  <g
     inkscape:label="Layer 1"
     inkscape:groupmode="layer"
     id="layer1"
     transform="translate(0,-241.43748)">
    <g
       id="g1594"
       transform="translate(-10.666557,-0.08993672)">
      <path
         inkscape:connector-curvature="0"
         id="path942"
         d="m 11.071893,269.0824 4.393876,17.81301 v 4.45325 l 1.742801,3.01862 c 0,0 2.740889,1.41172 2.749157,1.42825"
         style="fill:none;stroke:#000000;stroke-width:0.2351197px;stroke-linecap:butt;stroke-linejoin:miter;stroke-opacity:1"
         sodipodi:nodetypes="ccccc" />
      <path
         inkscape:connector-curvature="0"
         id="path942-2"
         d="m 28.884901,269.0824 -4.393876,17.81301 v 4.45325 l -1.742801,3.01862 c 0,0 -2.649937,1.43239 -2.691279,1.41172"
         style="fill:none;stroke:#000000;stroke-width:0.2351197px;stroke-linecap:butt;stroke-linejoin:miter;stroke-opacity:1"
         sodipodi:nodetypes="ccccc" />
      <path
         inkscape:connector-curvature="0"
         id="path959"
         d="m 11.0602,269.16717 1.064774,-1.90876 -1.053081,-2.56989 2.153117,-4.51263 4.534452,-4.45325"
         style="fill:none;stroke:#000000;stroke-width:0.2351197px;stroke-linecap:butt;stroke-linejoin:miter;stroke-opacity:1"
         sodipodi:nodetypes="ccccc" />
      <path
         inkscape:connector-curvature="0"
         id="path959-0"
         d="m 28.884901,269.0824 -1.053081,-1.82399 1.053081,-2.56989 -2.153116,-4.51263 -4.534452,-4.45325"
         style="fill:none;stroke:#000000;stroke-width:0.2351197px;stroke-linecap:butt;stroke-linejoin:miter;stroke-opacity:1" />
      <path
         inkscape:connector-curvature="0"
         id="path976"
         d="m 17.759462,255.72264 h 4.437871"
         style="fill:none;stroke:#000000;stroke-width:0.2351197px;stroke-linecap:butt;stroke-linejoin:miter;stroke-opacity:1" />
      <path
         inkscape:connector-curvature="0"
         id="path988"
         d="m 14.229834,259.22889 -0.01169,-3.50625 -2.544927,-4.40794 0.841084,-3.64355 0.567948,-1.06908 3.240643,-3.24064 1.937704,-0.40091 -0.501131,1.00227 v 11.75985"
         style="fill:none;stroke:#000000;stroke-width:0.26458332px;stroke-linecap:butt;stroke-linejoin:miter;stroke-opacity:1"
         sodipodi:nodetypes="ccccccccc" />
      <path
         inkscape:connector-curvature="0"
         id="path988-5"
         d="m 25.75519,259.18721 -0.01654,-3.46457 2.544927,-4.40794 -0.841084,-3.64355 -0.567948,-1.06908 -3.240643,-3.24064 -1.937704,-0.40091 0.501131,1.00227 v 11.75985"
         style="fill:none;stroke:#000000;stroke-width:0.26458332px;stroke-linecap:butt;stroke-linejoin:miter;stroke-opacity:1"
         sodipodi:nodetypes="ccccccccc" />
      <path
         inkscape:connector-curvature="0"
         id="path1009"
         d="m 15.465769,286.89541 3.196805,-8.7092"
         style="fill:none;stroke:#000000;stroke-width:0.26458332px;stroke-linecap:butt;stroke-linejoin:miter;stroke-opacity:1" />
      <path
         inkscape:connector-curvature="0"
         id="path1009-2"
         d="m 24.491025,286.89541 -3.196805,-8.7092"
         style="fill:none;stroke:#000000;stroke-width:0.26458332px;stroke-linecap:butt;stroke-linejoin:miter;stroke-opacity:1" />
      <path
         inkscape:connector-curvature="0"
         id="path1026"
         d="M 18.662574,278.18621 H 21.29422"
         style="fill:none;stroke:#000000;stroke-width:0.26458332px;stroke-linecap:butt;stroke-linejoin:miter;stroke-opacity:1" />
      <path
         inkscape:connector-curvature="0"
         id="path1028"
         d="m 15.465769,286.89541 h 9.025256"
         style="fill:none;stroke:#000000;stroke-width:0.26458332px;stroke-linecap:butt;stroke-linejoin:miter;stroke-opacity:1" />
      <path
         inkscape:connector-curvature="0"
         id="path1030"
         d="m 11.05143,269.01809 1.941501,1.73474 2.787575,-2.46487 -0.4016,-2.47962 -1.630022,-1.6545 -2.638284,0.70693"
         style="fill:none;stroke:#000000;stroke-width:0.26458332px;stroke-linecap:butt;stroke-linejoin:miter;stroke-opacity:1"
         sodipodi:nodetypes="cccccc" />
      <path
         inkscape:connector-curvature="0"
         id="path1030-1"
         d="m 28.884901,269.0824 -1.921038,1.67043 -2.787575,-2.46487 0.4016,-2.47962 1.630022,-1.6545 2.638284,0.70693"
         style="fill:none;stroke:#000000;stroke-width:0.26458332px;stroke-linecap:butt;stroke-linejoin:miter;stroke-opacity:1" />
      <path
         inkscape:connector-curvature="0"
         id="path1051"
         d="m 11.87679,267.86298 1.503391,0.63477 1.169304,-0.95215 -0.584652,-1.25283 -2.372017,-0.48443"
         style="fill:none;stroke:#000000;stroke-width:0.26458332px;stroke-linecap:butt;stroke-linejoin:miter;stroke-opacity:1" />
      <path
         inkscape:connector-curvature="0"
         id="path1051-7"
         d="m 28.054036,267.86299 -1.503391,0.63477 -1.169304,-0.95215 0.584652,-1.25283 2.372017,-0.48443"
         style="fill:none;stroke:#000000;stroke-width:0.26458332px;stroke-linecap:butt;stroke-linejoin:miter;stroke-opacity:1" />
      <path
         inkscape:connector-curvature="0"
         id="path1068"
         d="m 17.411757,287.08736 -1.849273,1.73512 0.981712,2.04782 1.438324,-0.47251 z"
         style="fill:none;stroke:#000000;stroke-width:0.2557019px;stroke-linecap:butt;stroke-linejoin:miter;stroke-opacity:1" />
      <path
         inkscape:connector-curvature="0"
         id="path1068-7"
         d="m 22.516378,287.03926 1.871851,1.75631 -0.993699,2.07282 -1.455884,-0.47828 z"
         style="fill:none;stroke:#000000;stroke-width:0.25882369px;stroke-linecap:butt;stroke-linejoin:miter;stroke-opacity:1" />
      <path
         inkscape:connector-curvature="0"
         id="path1087"
         d="m 22.756492,294.24326 v -3.50242"
         style="fill:none;stroke:#000000;stroke-width:0.26458332px;stroke-linecap:butt;stroke-linejoin:miter;stroke-opacity:1"
         sodipodi:nodetypes="cc" />
      <path
         inkscape:connector-curvature="0"
         id="path1091"
         d="m 17.20857,294.36728 v -3.70086"
         style="fill:none;stroke:#000000;stroke-width:0.26458332px;stroke-linecap:butt;stroke-linejoin:miter;stroke-opacity:1"
         sodipodi:nodetypes="cc" />
      <path
         inkscape:connector-curvature="0"
         id="path1093"
         d="m 17.20857,290.86486 h 5.539654"
         style="fill:none;stroke:#000000;stroke-width:0.26458332px;stroke-linecap:butt;stroke-linejoin:miter;stroke-opacity:1" />
      <path
         inkscape:connector-curvature="0"
         id="path1101"
         d="m 17.021921,256.23288 v -7.74851 l -0.461839,-3.98529 -2.858445,5.55153 1.198639,5.14992 z"
         style="fill:none;stroke:#000000;stroke-width:0.26458332px;stroke-linecap:butt;stroke-linejoin:miter;stroke-opacity:1"
         sodipodi:nodetypes="cccccc" />
      <path
         inkscape:connector-curvature="0"
         id="path1101-8"
         d="m 22.876995,256.13321 v -7.59968 l 0.519717,-4.13412 2.858445,5.55153 -1.198639,5.14992 z"
         style="fill:none;stroke:#000000;stroke-width:0.26458332px;stroke-linecap:butt;stroke-linejoin:miter;stroke-opacity:1"
         sodipodi:nodetypes="cccccc" />
      <path
         inkscape:connector-curvature="0"
         id="path1174"
         d="m 12.886164,268.11036 c -0.200091,-0.0856 -0.478098,-0.20309 -0.617794,-0.26097 l -0.253993,-0.10525 0.140247,-0.22692 0.140247,-0.22693 -0.241629,-0.6037 c -0.132896,-0.33204 -0.230538,-0.61451 -0.216983,-0.62772 0.01355,-0.0132 0.474739,0.066 1.024853,0.17611 l 1.000209,0.20011 0.223489,0.50481 c 0.12292,0.27764 0.22349,0.52305 0.22349,0.54535 0,0.0669 -0.903775,0.7865 -0.984062,0.78356 -0.04085,-0.002 -0.237982,-0.0728 -0.438074,-0.15845 z"
         style="fill:#000000;fill-opacity:1;stroke:none;stroke-width:0.125;stroke-miterlimit:4;stroke-dasharray:none;stroke-dashoffset:0;stroke-opacity:1" />
      <path
         inkscape:connector-curvature="0"
         id="path1176"
         d="m 26.082258,267.9012 c -0.254662,-0.20328 -0.463021,-0.38915 -0.463021,-0.41304 0,-0.0239 0.102873,-0.27101 0.228607,-0.54913 l 0.228607,-0.50568 1.02319,-0.20485 c 0.562755,-0.11267 1.032401,-0.19564 1.043659,-0.18438 0.01127,0.0113 -0.08324,0.26638 -0.21,0.56694 -0.263334,0.62439 -0.270518,0.67796 -0.121417,0.90551 0.06344,0.0968 0.08419,0.18954 0.04961,0.22167 -0.07869,0.0731 -1.154131,0.53339 -1.245179,0.53292 -0.03907,-2e-4 -0.279394,-0.16669 -0.534056,-0.36996 z"
         style="fill:#000000;fill-opacity:1;stroke:none;stroke-width:0.125;stroke-miterlimit:4;stroke-dasharray:none;stroke-dashoffset:0;stroke-opacity:1" />
      <path
         inkscape:connector-curvature="0"
         id="path1178"
         d="m 18.662574,278.18621 -5.669643,-7.43338"
         style="fill:none;stroke:#000000;stroke-width:0.26458332px;stroke-linecap:butt;stroke-linejoin:miter;stroke-opacity:1" />
      <path
         inkscape:connector-curvature="0"
         id="path1180"
         d="m 24.176288,268.28796 -2.882068,9.89825 5.669643,-7.43338"
         style="fill:none;stroke:#000000;stroke-width:0.26458332px;stroke-linecap:butt;stroke-linejoin:miter;stroke-opacity:1" />
      <path
         inkscape:connector-curvature="0"
         id="path1182"
         d="m 18.662574,278.18621 -2.882068,-9.89825"
         style="fill:none;stroke:#000000;stroke-width:0.26458332px;stroke-linecap:butt;stroke-linejoin:miter;stroke-opacity:1" />
      <path
         inkscape:connector-curvature="0"
         id="path1188"
         d="m 20.019199,262.72993 v 15.45242"
         style="fill:none;stroke:#000000;stroke-width:0.25103879px;stroke-linecap:butt;stroke-linejoin:miter;stroke-opacity:1" />
      <path
         inkscape:connector-curvature="0"
         id="path1190"
         d="m 13.864313,264.15296 -0.51933,-3.85895 6.735251,2.47763 6.58821,-2.47763 -0.453185,3.85895"
         style="fill:none;stroke:#000000;stroke-width:0.25946286px;stroke-linecap:butt;stroke-linejoin:miter;stroke-opacity:1"
         sodipodi:nodetypes="ccccc" />
      <path
         inkscape:connector-curvature="0"
         id="path1192"
         d="m 15.378906,265.80834 h 9.198982"
         style="fill:none;stroke:#000000;stroke-width:0.26458332px;stroke-linecap:butt;stroke-linejoin:miter;stroke-opacity:1" />
      <path
         inkscape:connector-curvature="0"
         id="path1194"
         d="m 20.019199,262.72993 v -7.00496"
         style="fill:none;stroke:#000000;stroke-width:0.26458332px;stroke-linecap:butt;stroke-linejoin:miter;stroke-opacity:1" />
      <path
         inkscape:connector-curvature="0"
         id="path1196"
         d="m 17.411757,287.08736 2.63043,3.7775 2.474191,-3.8256"
         style="fill:none;stroke:#000000;stroke-width:0.26458332px;stroke-linecap:butt;stroke-linejoin:miter;stroke-opacity:1" />
      <path
         inkscape:connector-curvature="0"
         id="path1280"
         d="m 16.183481,289.75142 -0.422584,-0.89033 0.647478,-0.61345 c 0.356112,-0.3374 0.701702,-0.65175 0.767977,-0.69857 0.14744,-0.10415 0.123425,-0.19083 0.410415,1.48133 l 0.216924,1.26392 -0.536605,0.17476 c -0.295134,0.0961 -0.564599,0.17428 -0.598813,0.1737 -0.03421,-5.2e-4 -0.25237,-0.40168 -0.484792,-0.89136 z"
         style="fill:#4d4d4d;fill-opacity:1;stroke:none;stroke-width:0.125;stroke-miterlimit:4;stroke-dasharray:none;stroke-dashoffset:0;stroke-opacity:1" />
      <path
         inkscape:connector-curvature="0"
         id="path1282"
         d="m 22.641873,290.45909 c -0.281947,-0.0951 -0.511093,-0.20404 -0.509214,-0.24212 0.0019,-0.0381 0.1135,-0.69751 0.248047,-1.46541 l 0.244631,-1.39617 0.780493,0.73857 0.780494,0.73857 -0.429308,0.90565 c -0.241452,0.50935 -0.467204,0.90305 -0.515911,0.89972 -0.04763,-0.003 -0.317285,-0.0837 -0.599232,-0.17881 z"
         style="fill:#4d4d4d;fill-opacity:1;stroke:none;stroke-width:0.125;stroke-miterlimit:4;stroke-dasharray:none;stroke-dashoffset:0;stroke-opacity:1" />
      <path
         inkscape:connector-curvature="0"
         id="path1284"
         d="m 12.112994,269.7666 -0.839558,-0.72824 0.272248,-0.47896 c 0.149736,-0.26343 0.280493,-0.48984 0.290571,-0.50313 0.01008,-0.0133 0.343795,0.11321 0.741592,0.28112 0.397798,0.16791 0.760058,0.30529 0.805024,0.30529 0.11243,0 1.322641,-0.99047 1.323263,-1.08299 2.65e-4,-0.041 -0.139802,-0.37677 -0.311284,-0.74613 l -0.311784,-0.67157 -1.228633,-0.24419 -1.228632,-0.2442 -0.136344,-0.3464 -0.136343,-0.3464 1.163629,-0.30788 1.16363,-0.30788 0.774887,0.77629 0.774887,0.77629 0.186808,1.16279 0.186809,1.16278 -1.26144,1.11443 c -0.693792,0.61294 -1.290315,1.12406 -1.325606,1.13582 -0.03529,0.0118 -0.441967,-0.30631 -0.903724,-0.70684 z"
         style="fill:#ececec;fill-opacity:1;stroke:none;stroke-width:0.125;stroke-miterlimit:4;stroke-dasharray:none;stroke-dashoffset:0;stroke-opacity:1" />
      <path
         inkscape:connector-curvature="0"
         id="path1286"
         d="m 25.751987,269.46463 c -0.636654,-0.56426 -1.211077,-1.07903 -1.276497,-1.14394 -0.11448,-0.11358 -0.112166,-0.16128 0.06163,-1.27054 l 0.18058,-1.15253 0.768108,-0.78213 0.768108,-0.78214 1.154631,0.30946 c 0.635048,0.1702 1.164146,0.31836 1.175772,0.32923 0.01162,0.0109 -0.04254,0.16779 -0.120365,0.3487 l -0.141502,0.32893 -1.236429,0.24574 -1.23643,0.24575 -0.313389,0.67883 c -0.172364,0.37335 -0.313389,0.7093 -0.313389,0.74655 0,0.0953 1.21998,1.07614 1.338542,1.07614 0.05364,0 0.403799,-0.13395 0.778126,-0.29766 0.374325,-0.16371 0.702202,-0.29766 0.728615,-0.29766 0.0602,0 0.604176,0.93309 0.579411,0.99386 -0.03133,0.0769 -1.630016,1.45365 -1.685383,1.45144 -0.02893,-10e-4 -0.57349,-0.46377 -1.210144,-1.02803 z"
         style="fill:#ececec;fill-opacity:1;stroke:none;stroke-width:0.125;stroke-miterlimit:4;stroke-dasharray:none;stroke-dashoffset:0;stroke-opacity:1" />
      <path
         inkscape:connector-curvature="0"
         id="path1290"
         d="m 18.662574,278.18621 v 8.69345"
         style="fill:none;stroke:#000000;stroke-width:0.26458332px;stroke-linecap:butt;stroke-linejoin:miter;stroke-opacity:1" />
      <path
         inkscape:connector-curvature="0"
         id="path1292"
         d="m 21.29422,278.18621 v 8.79267"
         style="fill:none;stroke:#000000;stroke-width:0.26458332px;stroke-linecap:butt;stroke-linejoin:miter;stroke-opacity:1" />
      <path
         inkscape:connector-curvature="0"
         id="path1294"
         d="m 20.019199,278.18235 v 8.59809"
         style="fill:none;stroke:#000000;stroke-width:0.26458332px;stroke-linecap:butt;stroke-linejoin:miter;stroke-opacity:1" />
      <path
         inkscape:connector-curvature="0"
         id="path1350"
         d="m 24.44232,286.23858 c -0.02339,-0.0378 -0.699423,-1.85868 -1.502298,-4.0463 l -1.459773,-3.97748 2.803182,-3.6737 c 2.647821,-3.4701 2.843134,-3.70852 3.524042,-4.30176 0.396472,-0.34542 0.730345,-0.5996 0.741933,-0.56483 0.01474,0.0442 -3.845051,15.84786 -4.046975,16.56999 -0.01027,0.0367 -0.03529,0.0342 -0.06011,-0.006 z"
         style="fill:#b3b3b3;fill-opacity:1;stroke:none;stroke-width:0.125;stroke-miterlimit:4;stroke-dasharray:none;stroke-dashoffset:0;stroke-opacity:1" />
      <path
         inkscape:connector-curvature="0"
         id="path1352"
         d="m 15.733564,274.06521 c -1.323806,-1.73981 -2.429542,-3.19332 -2.457192,-3.23003 -0.04622,-0.0614 2.364824,-2.26001 2.418383,-2.20535 0.04838,0.0494 2.483415,8.4856 2.465126,8.54047 -0.01067,0.032 -1.102512,-1.36528 -2.426317,-3.10509 z"
         style="fill:#b3b3b3;fill-opacity:1;stroke:none;stroke-width:0.125;stroke-miterlimit:4;stroke-dasharray:none;stroke-dashoffset:0;stroke-opacity:1" />
      <path
         inkscape:connector-curvature="0"
         id="path1354"
         d="m 16.609418,261.32671 c -1.716189,-0.64392 -3.132358,-1.18107 -3.147043,-1.19367 -0.05134,-0.0441 3.574888,-3.5284 3.662525,-3.51923 0.04866,0.005 0.08845,-0.0412 0.08845,-0.10287 0,-0.0616 0.129481,-0.2385 0.287733,-0.39294 l 0.287733,-0.2808 h 1.020798 1.020798 v 3.33627 c 0,1.83494 -0.02265,3.3335 -0.05033,3.33013 -0.02768,-0.003 -1.454482,-0.53297 -3.170672,-1.17689 z"
         style="fill:#b3b3b3;fill-opacity:1;stroke:none;stroke-width:0.12645237;stroke-miterlimit:4;stroke-dasharray:none;stroke-dashoffset:0;stroke-opacity:1" />
      <path
         inkscape:connector-curvature="0"
         id="path1356"
         d="m 15.746304,286.62809 c 0.05679,-0.20316 2.705057,-7.39065 2.733699,-7.41936 0.01512,-0.0152 0.0275,1.67405 0.0275,3.75378 v 3.78134 h -1.396777 c -1.298494,0 -1.394501,-0.008 -1.36442,-0.11576 z"
         style="fill:#b3b3b3;fill-opacity:1;stroke:none;stroke-width:0.125;stroke-miterlimit:4;stroke-dasharray:none;stroke-dashoffset:0;stroke-opacity:1" />
      <path
         inkscape:connector-curvature="0"
         id="path1358"
         d="m 15.212535,285.25557 c -0.150087,-0.61847 -1.077199,-4.3816 -2.060249,-8.36252 -0.98305,-3.98093 -1.774702,-7.25071 -1.759228,-7.26618 0.01548,-0.0155 0.355137,0.25817 0.754806,0.60811 0.684659,0.59946 0.886243,0.84539 3.486823,4.25386 1.518085,1.98969 2.771617,3.66347 2.785626,3.71952 0.01401,0.056 -0.625495,1.87295 -1.421122,4.03757 -0.795627,2.16462 -1.461709,3.98033 -1.480183,4.0349 -0.01847,0.0546 -0.156386,-0.4068 -0.306473,-1.02526 z"
         style="fill:#e6e6e6;fill-opacity:1;stroke:none;stroke-width:0.125;stroke-miterlimit:4;stroke-dasharray:none;stroke-dashoffset:0;stroke-opacity:1" />
      <path
         inkscape:connector-curvature="0"
         id="path1360"
         d="m 20.176368,264.24238 0.01785,-1.40095 3.158463,-1.20226 c 2.440426,-0.92894 3.1583,-1.17812 3.157737,-1.09606 -5.29e-4,0.0584 -0.104079,0.87916 -0.230397,1.82389 l -0.229669,1.71768 -0.777293,0.77932 -0.777294,0.77933 H 22.32714 20.158514 Z"
         style="fill:#e6e6e6;fill-opacity:1;stroke:none;stroke-width:0.125;stroke-miterlimit:4;stroke-dasharray:none;stroke-dashoffset:0;stroke-opacity:1" />
      <path
         inkscape:connector-curvature="0"
         id="path1362"
         d="m 20.439407,290.56377 c 0.76785,-1.20245 1.739444,-2.68416 1.751901,-2.6717 0.01285,0.0129 -0.256771,1.63541 -0.404719,2.43554 -0.02937,0.15882 -0.0038,0.18751 0.245761,0.2759 0.270502,0.0958 0.250174,0.0988 -0.704722,0.10386 l -0.983259,0.005 z"
         style="fill:#e6e6e6;fill-opacity:1;stroke:none;stroke-width:0.125;stroke-miterlimit:4;stroke-dasharray:none;stroke-dashoffset:0;stroke-opacity:1" />
      <path
         inkscape:connector-curvature="0"
         id="path1364"
         d="m 20.161147,282.54359 v -4.20026 h 0.496093 0.496094 v 4.20026 4.20026 H 20.65724 20.161147 Z"
         style="fill:#e6e6e6;fill-opacity:1;stroke:none;stroke-width:0.125;stroke-miterlimit:4;stroke-dasharray:none;stroke-dashoffset:0;stroke-opacity:1" />
      <path
         inkscape:connector-curvature="0"
         id="path1366"
         d="m 18.746519,277.89684 c -0.01896,-0.0637 -0.64972,-2.22911 -1.40168,-4.81211 -1.083672,-3.72243 -1.406639,-4.92268 -1.557378,-5.78776 -0.104599,-0.60027 -0.190223,-1.14349 -0.190278,-1.20716 -9.2e-5,-0.10783 0.144754,-0.11575 2.116568,-0.11575 h 2.116666 v 6.01927 6.01927 h -0.524709 c -0.44249,0 -0.530112,-0.0181 -0.559189,-0.11576 z"
         style="fill:#666666;fill-opacity:1;stroke:none;stroke-width:0.125;stroke-miterlimit:4;stroke-dasharray:none;stroke-dashoffset:0;stroke-opacity:1" />
      <path
         inkscape:connector-curvature="0"
         id="path1368"
         d="m 20.161147,259.16104 v -3.3073 l 0.975651,0.001 0.975651,0.001 2.170038,2.12498 2.170038,2.12498 -3.09608,1.18036 c -1.702844,0.6492 -3.118404,1.18063 -3.145689,1.18096 -0.02728,3.1e-4 -0.04961,-1.48769 -0.04961,-3.3067 z"
         style="fill:#666666;fill-opacity:1;stroke:none;stroke-width:0.125;stroke-miterlimit:4;stroke-dasharray:none;stroke-dashoffset:0;stroke-opacity:1" />
      <path
         inkscape:connector-curvature="0"
         id="path1374"
         d="m 21.488256,282.99007 c 0.0029,-2.58981 0.02485,-3.7025 0.07082,-3.58841 0.06601,0.16384 2.048126,5.55308 2.475359,6.73034 l 0.222043,0.61185 H 22.87027 21.484063 Z"
         style="fill:#666666;fill-opacity:1;stroke:none;stroke-width:0.125;stroke-miterlimit:4;stroke-dasharray:none;stroke-dashoffset:0;stroke-opacity:1" />
      <path
         inkscape:connector-curvature="0"
         id="path1378"
         d="m 18.83823,282.54359 v -4.20026 h 0.496094 0.496093 v 4.20026 4.20026 H 19.334324 18.83823 Z"
         style="fill:#f2f2f2;fill-opacity:1;stroke:none;stroke-width:0.125;stroke-miterlimit:4;stroke-dasharray:none;stroke-dashoffset:0;stroke-opacity:1" />
      <path
         inkscape:connector-curvature="0"
         id="path1380"
         d="m 20.161147,271.99611 v -6.02205 H 22.279073 24.397 l -0.03303,0.14882 c -0.01817,0.0819 -0.107433,0.6102 -0.198366,1.17409 -0.136586,0.84701 -0.41023,1.8648 -1.573872,5.85391 l -1.40854,4.82864 -0.511021,0.0193 -0.511021,0.0193 z"
         style="fill:#b3b3b3;fill-opacity:1;stroke:none;stroke-width:0.125;stroke-miterlimit:4;stroke-dasharray:none;stroke-dashoffset:0;stroke-opacity:1" />
      <path
         inkscape:connector-curvature="0"
         id="path1382"
         d="m 14.659413,264.84701 c -0.411976,-0.43797 -0.756619,-0.83236 -0.765874,-0.87643 -0.03356,-0.15981 -0.469443,-3.51847 -0.457977,-3.52893 0.0065,-0.006 1.447856,0.52954 3.203056,1.18987 l 3.191274,1.20061 2.63e-4,1.4056 2.62e-4,1.4056 h -2.210978 -2.210977 z"
         style="fill:#f2f2f2;fill-opacity:1;stroke:none;stroke-width:0.125;stroke-miterlimit:4;stroke-dasharray:none;stroke-dashoffset:0;stroke-opacity:1" />
      <path
         inkscape:connector-curvature="0"
         id="path1384"
         d="m 11.303796,264.52869 c 0.07694,-0.20212 1.903617,-3.95655 1.91809,-3.94234 0.01905,0.0188 0.448845,3.20521 0.448845,3.32771 0,0.0587 -0.122898,0.13081 -0.299929,0.17613 -0.16496,0.0422 -0.707603,0.18464 -1.205874,0.31648 -0.77785,0.20583 -0.89961,0.22308 -0.861132,0.12202 z"
         style="fill:#b3b3b3;fill-opacity:1;stroke:none;stroke-width:0.13215196;stroke-miterlimit:4;stroke-dasharray:none;stroke-dashoffset:0;stroke-opacity:1" />
      <path
         inkscape:connector-curvature="0"
         id="path1386"
         d="m 27.536656,264.34033 c -0.600274,-0.16199 -1.10283,-0.30593 -1.116792,-0.31986 -0.02414,-0.0241 0.380305,-3.21785 0.411434,-3.24898 0.0082,-0.008 0.425955,0.849 0.928407,1.90484 0.502451,1.05583 0.903382,1.92843 0.890952,1.93912 -0.01243,0.0107 -0.513728,-0.11312 -1.114001,-0.27512 z"
         style="fill:#f2f2f2;fill-opacity:1;stroke:none;stroke-width:0.125;stroke-miterlimit:4;stroke-dasharray:none;stroke-dashoffset:0;stroke-opacity:1" />
      <path
         inkscape:connector-curvature="0"
         id="path1388"
         d="m 21.854574,277.03568 c -0.0087,-0.19812 2.394133,-8.36448 2.454894,-8.34347 0.0361,0.0125 0.592655,0.48334 1.236794,1.04635 l 1.171162,1.02366 -0.249267,0.33274 c -0.673492,0.89901 -4.457569,5.86324 -4.528425,5.94072 -0.05133,0.0561 -0.08271,0.0561 -0.08516,0 z"
         style="fill:#ececec;fill-opacity:1;stroke:none;stroke-width:0.17677671;stroke-miterlimit:4;stroke-dasharray:none;stroke-dashoffset:0;stroke-opacity:1" />
      <path
         inkscape:connector-curvature="0"
         id="path1392"
         d="m 18.809721,288.83401 -1.226385,-1.76176 2.351272,-0.008 c 1.293201,-0.005 2.357166,-0.003 2.364369,0.005 0.0094,0.009 -2.195453,3.44935 -2.255185,3.51851 -0.0042,0.005 -0.559559,-0.78389 -1.234071,-1.75286 z"
         style="fill:#ffffff;fill-opacity:1;stroke:none;stroke-width:0.0625;stroke-miterlimit:4;stroke-dasharray:none;stroke-dashoffset:0;stroke-opacity:1" />
      <path
         inkscape:connector-curvature="0"
         id="path1394"
         d="m 17.777384,290.62227 c 0.172806,-0.0548 0.32559,-0.11051 0.33952,-0.12377 0.01393,-0.0133 -0.07971,-0.63144 -0.208099,-1.37375 -0.128385,-0.74232 -0.228842,-1.35425 -0.223238,-1.35986 0.0085,-0.008 0.65222,0.90771 1.854016,2.63882 l 0.224308,0.3231 -1.15035,-0.002 -1.15035,-0.002 z"
         style="fill:#c8c4b7;fill-opacity:1;stroke:none;stroke-width:0.0625;stroke-miterlimit:4;stroke-dasharray:none;stroke-dashoffset:0;stroke-opacity:1" />
      <path
         inkscape:connector-curvature="0"
         id="path1396"
         d="m 22.903686,292.33794 v -1.47568 l 0.157096,0.0482 c 0.0864,0.0265 0.213003,0.0654 0.281334,0.0864 0.06833,0.021 0.130059,0.0321 0.137175,0.0246 0.0071,-0.007 0.190828,-0.3867 0.408248,-0.84275 0.217419,-0.45605 0.411966,-0.85788 0.432326,-0.89297 0.02789,-0.0481 0.03727,0.19337 0.03802,0.979 l 0.001,1.04279 -0.714103,1.23924 c -0.392757,0.68159 -0.720179,1.24545 -0.727605,1.25303 -0.0074,0.008 -0.0135,-0.65028 -0.0135,-1.4619 z"
         style="fill:#e3dedb;fill-opacity:1;stroke:none;stroke-width:0.0625;stroke-miterlimit:4;stroke-dasharray:none;stroke-dashoffset:0;stroke-opacity:1" />
      <path
         inkscape:connector-curvature="0"
         id="path1400"
         d="m 18.808285,288.83418 -1.227413,-1.76193 2.352505,-0.008 c 1.293877,-0.005 2.358299,-0.003 2.365382,0.004 0.01024,0.0102 -1.897528,2.98988 -2.189502,3.41967 l -0.07356,0.10828 z"
         style="fill:#e3dedb;fill-opacity:1;stroke:none;stroke-width:0.0625;stroke-miterlimit:4;stroke-dasharray:none;stroke-dashoffset:0;stroke-opacity:1" />
      <path
         inkscape:connector-curvature="0"
         id="path1402"
         d="m 16.313422,292.54728 -0.719821,-1.24836 0.0088,-1.01967 0.0088,-1.01967 0.409984,0.85764 c 0.225492,0.4717 0.422826,0.87191 0.438521,0.88936 0.01789,0.0199 0.129505,-10e-4 0.299197,-0.057 0.148863,-0.0488 0.275387,-0.084 0.281163,-0.0782 0.0058,0.006 0.0066,0.66611 0.0019,1.4674 l -0.0086,1.4569 z"
         style="fill:#e2e3db;fill-opacity:1;stroke:none;stroke-width:0.0625;stroke-miterlimit:4;stroke-dasharray:none;stroke-dashoffset:0;stroke-opacity:1" />
      <path
         inkscape:connector-curvature="0"
         id="path1404"
         d="m 15.594572,287.8231 v -0.76739 h 0.818068 0.818068 l -0.131805,0.12717 c -0.07249,0.0699 -0.384813,0.36297 -0.694045,0.65118 -0.309232,0.28821 -0.61805,0.57632 -0.686263,0.64023 l -0.124023,0.1162 z"
         style="fill:#c8beb7;fill-opacity:1;stroke:none;stroke-width:0.0625;stroke-miterlimit:4;stroke-dasharray:none;stroke-dashoffset:0;stroke-opacity:1" />
      <path
         inkscape:connector-curvature="0"
         id="path1406"
         d="m 23.552695,287.81124 -0.789663,-0.73899 0.786297,-0.009 c 0.432463,-0.005 0.791822,-0.003 0.798576,0.003 0.0068,0.007 0.0083,0.3433 0.0034,0.74787 l -0.0089,0.73558 z"
         style="fill:#e3dbdb;fill-opacity:1;stroke:none;stroke-width:0.0625;stroke-miterlimit:4;stroke-dasharray:none;stroke-dashoffset:0;stroke-opacity:1" />
      <path
         inkscape:connector-curvature="0"
         id="path1408"
         d="m 18.848418,282.52685 v -4.20026 h 0.496094 0.496094 v 4.20026 4.20026 h -0.496094 -0.496094 z"
         style="fill:#b3b3b3;fill-opacity:1;stroke:none;stroke-width:0.125;stroke-miterlimit:4;stroke-dasharray:none;stroke-dashoffset:0;stroke-opacity:1" />
      <path
         inkscape:connector-curvature="0"
         id="path1414"
         d="m 23.05517,252.16455 0.0031,-3.82542 0.213805,-1.68672 0.213805,-1.68672 0.370135,0.69454 c 0.203574,0.38199 0.787967,1.51308 1.298652,2.51354 l 0.928518,1.81901 -0.578014,2.47293 c -0.514197,2.1999 -0.595712,2.48553 -0.738305,2.587 -0.08816,0.0627 -0.510035,0.29928 -0.937503,0.52566 l -0.777213,0.41161 z"
         style="fill:#ececec;fill-opacity:1;stroke:none;stroke-width:0.125;stroke-miterlimit:4;stroke-dasharray:none;stroke-dashoffset:0;stroke-opacity:1" />
      <path
         inkscape:connector-curvature="0"
         id="path1416"
         d="m 15.974506,255.59391 c -0.491133,-0.26834 -0.902645,-0.49711 -0.914471,-0.50837 -0.01183,-0.0113 -0.283321,-1.14198 -0.603322,-2.51269 l -0.581821,-2.4922 1.296381,-2.52441 1.296381,-2.5244 0.213649,1.68672 0.21365,1.68672 -0.01374,3.83826 -0.01374,3.83827 z"
         style="fill:#ececec;fill-opacity:1;stroke:none;stroke-width:0.125;stroke-miterlimit:4;stroke-dasharray:none;stroke-dashoffset:0;stroke-opacity:1" />
      <path
         inkscape:connector-curvature="0"
         id="path1422"
         d="m 14.386731,257.21921 -2.65e-4,-1.53789 -1.256496,-2.17697 c -0.691073,-1.19734 -1.256496,-2.21217 -1.256496,-2.25519 0,-0.043 0.179052,-0.84933 0.397893,-1.79178 0.551899,-2.3768 0.464097,-2.22741 2.52868,-4.3022 l 1.65442,-1.66259 0.702603,-0.13993 c 0.386431,-0.077 0.725428,-0.13991 0.753326,-0.13988 0.0279,3e-5 -0.02419,0.14789 -0.115755,0.32858 l -0.166479,0.32853 v 5.8768 5.87681 l -0.198438,0.19011 -0.198437,0.19012 0.0023,-3.70001 0.0023,-3.7 -0.283089,-2.2655 c -0.155698,-1.24602 -0.300225,-2.26549 -0.32117,-2.26549 -0.02094,0 -0.727811,1.33893 -1.570811,2.9754 l -1.532728,2.97541 0.600214,2.59738 c 0.475107,2.05599 0.628344,2.62163 0.735173,2.7137 0.07423,0.064 0.495974,0.30919 0.937213,0.5449 0.44124,0.23572 0.846903,0.45793 0.901473,0.49381 0.07987,0.0525 -0.126345,0.29127 -1.057625,1.2245 -0.636263,0.6376 -1.179486,1.15927 -1.207161,1.15927 -0.02768,0 -0.05044,-0.69205 -0.05059,-1.53789 z"
         style="fill:#f9f9f9;fill-opacity:1;stroke:none;stroke-width:0.125;stroke-miterlimit:4;stroke-dasharray:none;stroke-dashoffset:0;stroke-opacity:1" />
      <path
         inkscape:connector-curvature="0"
         id="path1424"
         d="m 24.325417,257.60616 c -0.663939,-0.65121 -1.207161,-1.20247 -1.207161,-1.22502 0,-0.0226 0.468374,-0.29512 1.040831,-0.60568 l 1.040832,-0.56467 0.614178,-2.64255 0.614178,-2.64255 -1.539255,-2.98906 c -0.846589,-1.64399 -1.556715,-2.96834 -1.578057,-2.94302 -0.02134,0.0253 -0.163551,1.05807 -0.316021,2.295 l -0.277219,2.24896 0.0018,3.73223 0.0018,3.73224 -0.165364,-0.15536 -0.165365,-0.15535 v -5.84426 -5.84426 l -0.199389,-0.39499 c -0.109665,-0.21724 -0.176637,-0.39501 -0.148829,-0.39504 0.02781,-3e-5 0.377984,0.064 0.778166,0.14238 l 0.727604,0.14243 1.593409,1.59395 c 2.039693,2.04038 1.986575,1.94945 2.540446,4.34872 0.218424,0.94617 0.397137,1.76097 0.397137,1.81065 0,0.0497 -0.558107,1.05197 -1.240234,2.2273 l -1.240237,2.13696 -0.03307,1.5875 -0.03307,1.5875 z"
         style="fill:#f9f9f9;fill-opacity:1;stroke:none;stroke-width:0.125;stroke-miterlimit:4;stroke-dasharray:none;stroke-dashoffset:0;stroke-opacity:1" />
      <path
         inkscape:connector-curvature="0"
         id="path1426"
         d="m 20.008547,290.73916 -0.01362,5.15146"
         style="fill:none;stroke:#000000;stroke-width:0.26706716px;stroke-linecap:butt;stroke-linejoin:miter;stroke-opacity:1"
         sodipodi:nodetypes="cc" />
      <path
         inkscape:connector-curvature="0"
         id="path1428"
         d="m 20.166874,293.24578 v -2.21861 h 1.216077 1.216076 v 1.62851 1.62851 l -1.216076,0.5901 -1.216077,0.59011 z"
         style="fill:#c8beb7;fill-opacity:1;stroke:none;stroke-width:0.08838835;stroke-miterlimit:4;stroke-dasharray:none;stroke-dashoffset:0;stroke-opacity:1" />
      <path
         inkscape:connector-curvature="0"
         id="path1430"
         d="m 18.564927,294.87409 -1.204383,-0.58891 v -1.62901 -1.629 h 1.239463 1.239462 v 2.22168 c 0,1.22192 -0.01579,2.21998 -0.03508,2.21791 -0.01929,-0.002 -0.577052,-0.26877 -1.239463,-0.59267 z"
         style="fill:#c8beb7;fill-opacity:1;stroke:none;stroke-width:0.08838835;stroke-miterlimit:4;stroke-dasharray:none;stroke-dashoffset:0;stroke-opacity:1" />
      <path
         inkscape:connector-curvature="0"
         id="path1432"
         d="m 19.824896,295.40758 c 0,-0.0424 -0.01857,-0.0586 -0.04126,-0.0359 -0.02269,0.0227 -0.152954,-0.0157 -0.289466,-0.0854 -0.136511,-0.0696 -0.266771,-0.10805 -0.289466,-0.0854 -0.02269,0.0227 -0.04126,0.007 -0.04126,-0.0359 0,-0.0424 -0.02249,-0.0697 -0.04999,-0.0606 -0.02749,0.009 -0.428975,-0.17694 -0.892183,-0.41341 l -0.842197,-0.42995 -7.94e-4,-1.60403 -7.93e-4,-1.60404 h 1.25677 1.256771 v 2.21589 c 0,1.21873 -0.01488,2.21588 -0.03307,2.21588 -0.01819,0 -0.03307,-0.0347 -0.03307,-0.0772 z"
         style="fill:#cccccc;fill-opacity:1;stroke:none;stroke-width:0.125;stroke-miterlimit:4;stroke-dasharray:none;stroke-dashoffset:0;stroke-opacity:1" />
      <path
         inkscape:connector-curvature="0"
         id="path1434"
         d="m 20.221771,293.23653 v -2.18355 h 1.190625 1.190625 l -7.14e-4,1.60404 -7.14e-4,1.60403 -0.506403,0.26459 c -0.278522,0.14552 -0.531209,0.25714 -0.561527,0.24804 -0.03032,-0.009 -0.05512,0.015 -0.05512,0.0535 0,0.0385 0.03638,0.0224 0,0 -0.03638,-0.0225 -0.08553,0.0369 -0.08553,0.0811 0,0.0446 -0.04179,0.0685 -0.06429,0.046 -0.02249,-0.0225 -0.228731,0.11218 -0.515468,0.25631 l -0.658732,0.32351 z"
         style="fill:#c8beb7;fill-opacity:1;stroke:none;stroke-width:0.125;stroke-miterlimit:4;stroke-dasharray:none;stroke-dashoffset:0;stroke-opacity:1"
         sodipodi:nodetypes="ccccccccscscccc" />
      <path
         inkscape:connector-curvature="0"
         id="path1436"
         d="m 18.564818,294.87952 -1.207161,-0.5825 v -1.65509 -1.65509 h 1.256771 1.25677 l -0.001,2.16627 c -5.56e-4,1.19145 -0.0063,2.31413 -0.03307,2.35335 -0.0317,0.0465 -0.484946,-0.24701 -1.272294,-0.62694 z"
         style="fill:#c8c4b7;fill-opacity:1;stroke:none;stroke-width:0.125;stroke-miterlimit:4;stroke-dasharray:none;stroke-dashoffset:0;stroke-opacity:1"
         sodipodi:nodetypes="cccccccccc" />
    </g>
    <path
       style="fill:#b3b3b3;fill-opacity:1;stroke:none;stroke-width:0.125;stroke-miterlimit:4;stroke-dasharray:none;stroke-dashoffset:0;stroke-opacity:1"
       d="m 13.60108,257.45969 -1.310861,-1.26705 1.122333,-0.53598 1.122333,-0.53598 0.06249,-0.28708 c 0.03437,-0.15789 0.309484,-1.34688 0.611369,-2.64221 l 0.548882,-2.35514 -1.307973,-2.53965 c -0.719386,-1.39681 -1.413858,-2.73115 -1.543271,-2.96521 -0.217325,-0.39306 -0.239123,-0.41327 -0.285385,-0.26458 -0.02755,0.0885 -0.170757,1.13316 -0.318242,2.3214 l -0.268155,2.16042 v 3.68848 3.68847 l -0.165365,-0.15535 -0.165364,-0.15535 v -5.87765 -5.87765 l -0.169812,-0.33511 c -0.0934,-0.1843 -0.152811,-0.3521 -0.132033,-0.37288 0.02078,-0.0208 0.357643,0.0285 0.748587,0.10963 l 0.71081,0.1474 1.606164,1.60021 c 2.050471,2.04286 1.995149,1.94977 2.536151,4.2678 0.215061,0.92147 0.396542,1.74212 0.403291,1.82365 0.0073,0.088 -0.483423,1.00594 -1.208336,2.26027 l -1.220603,2.11202 -0.03307,1.62709 -0.03307,1.62708 z"
       id="path1622"
       inkscape:connector-curvature="0" />
    <path
       style="fill:#b3b3b3;fill-opacity:1;stroke:none;stroke-width:0.125;stroke-miterlimit:4;stroke-dasharray:none;stroke-dashoffset:0;stroke-opacity:1"
       d="m 3.7002256,257.17409 v -1.60448 l -1.2618521,-2.18599 -1.2618524,-2.186 0.4066577,-1.76406 c 0.5664107,-2.45707 0.4878077,-2.32229 2.5625848,-4.39407 l 1.6380548,-1.63569 0.6522027,-0.13371 c 0.8966377,-0.18383 0.8679197,-0.19215 0.6718277,0.19482 l -0.166479,0.32853 v 5.91745 5.91745 l -0.1819007,0.14314 -0.181901,0.14314 -0.03724,-3.95826 -0.03724,-3.95827 -0.2438817,-1.94111 c -0.134136,-1.06761 -0.243883,-1.9744 -0.243883,-2.01508 0,-0.0434 -0.03741,-0.0339 -0.09046,0.0229 -0.152414,0.16319 -3.0183932,5.79025 -3.0183932,5.92631 0,0.16851 1.1043414,4.90976 1.1878314,5.0997 0.04395,0.1 0.3953067,0.3129 1.0922924,0.66194 l 1.0275074,0.51456 -1.2569414,1.25563 -1.2569404,1.25564 z"
       id="path1624"
       inkscape:connector-curvature="0" />
  </g>
</svg>
