<?xml version="1.0" encoding="UTF-8" standalone="no"?>
<!-- Created with Inkscape (http://www.inkscape.org/) -->

<svg
   xmlns:dc="http://purl.org/dc/elements/1.1/"
   xmlns:cc="http://creativecommons.org/ns#"
   xmlns:rdf="http://www.w3.org/1999/02/22-rdf-syntax-ns#"
   xmlns:svg="http://www.w3.org/2000/svg"
   xmlns="http://www.w3.org/2000/svg"
   xmlns:sodipodi="http://sodipodi.sourceforge.net/DTD/sodipodi-0.dtd"
   xmlns:inkscape="http://www.inkscape.org/namespaces/inkscape"
   width="250"
   height="82"
   viewBox="0 0 66.145833 21.695832"
   version="1.1"
   id="svg8"
   inkscape:version="0.92.3 (2405546, 2018-03-11)"
   sodipodi:docname="finence_color_small.svg"
   inkscape:export-filename="C:\Users\ducvo\eclipse-workspace\finEnce\src\main\resources\com\dev\finence\icons\logo\finence_color_small.png"
   inkscape:export-xdpi="101.29"
   inkscape:export-ydpi="101.29">
  <defs
     id="defs2" />
  <sodipodi:namedview
     id="base"
     pagecolor="#ffffff"
     bordercolor="#666666"
     borderopacity="1.0"
     inkscape:pageopacity="0.0"
     inkscape:pageshadow="2"
     inkscape:zoom="1.979899"
     inkscape:cx="173.89418"
     inkscape:cy="31.759704"
     inkscape:document-units="px"
     inkscape:current-layer="g4709"
     showgrid="false"
     inkscape:window-width="1920"
     inkscape:window-height="1001"
     inkscape:window-x="-9"
     inkscape:window-y="-9"
     inkscape:window-maximized="1"
     units="px" />
  <metadata
     id="metadata5">
    <rdf:RDF>
      <cc:Work
         rdf:about="">
        <dc:format>image/svg+xml</dc:format>
        <dc:type
           rdf:resource="http://purl.org/dc/dcmitype/StillImage" />
        <dc:title></dc:title>
      </cc:Work>
    </rdf:RDF>
  </metadata>
  <g
     inkscape:label="Ebene 1"
     inkscape:groupmode="layer"
     id="layer1"
     transform="translate(0,-275.30422)">
    <path
       style="fill:#e0692e;fill-opacity:1;stroke:#e0692e;stroke-width:1.13056839;stroke-miterlimit:4;stroke-dasharray:none;stroke-opacity:1"
       d="M 2.0250578,294.97208 H 15.338789 v 0.89538 H 2.0250578 Z"
       id="rect4524"
       inkscape:connector-curvature="0"
       inkscape:export-xdpi="101.28826"
       inkscape:export-ydpi="101.28826" />
    <path
       style="fill:#e0692e;fill-opacity:1;stroke:#e0692e;stroke-width:1.13056839;stroke-miterlimit:4;stroke-dasharray:none;stroke-opacity:1"
       d="M 1.3885434,292.66792 H 14.702278 v 0.89535 H 1.3885434 Z"
       id="rect4524-9"
       inkscape:connector-curvature="0"
       inkscape:export-xdpi="101.28826"
       inkscape:export-ydpi="101.28826" />
    <path
       style="fill:#e0692e;fill-opacity:1;stroke:#e0692e;stroke-width:1.13056839;stroke-miterlimit:4;stroke-dasharray:none;stroke-opacity:1"
       d="M 2.9791602,290.3457 H 16.292894 v 0.89538 H 2.9791602 Z"
       id="rect4524-4"
       inkscape:connector-curvature="0"
       inkscape:export-xdpi="101.28826"
       inkscape:export-ydpi="101.28826" />
    <path
       style="fill:#e0692e;fill-opacity:1;stroke:#e0692e;stroke-width:1.13056839;stroke-miterlimit:4;stroke-dasharray:none;stroke-opacity:1"
       d="M 2.1404185,288.07537 H 15.454153 v 0.89535 H 2.1404185 Z"
       id="rect4524-9-5"
       inkscape:connector-curvature="0"
       inkscape:export-xdpi="101.28826"
       inkscape:export-ydpi="101.28826" />
    <path
       style="fill:#e0692e;fill-opacity:1;stroke:#e0692e;stroke-width:1.13056839;stroke-miterlimit:4;stroke-dasharray:none;stroke-opacity:1"
       d="M 1.8191563,285.74215 H 15.132889 v 0.89537 H 1.8191563 Z"
       id="rect4524-4-8"
       inkscape:connector-curvature="0"
       inkscape:export-xdpi="101.28826"
       inkscape:export-ydpi="101.28826" />
    <path
       style="fill:#e0692e;fill-opacity:1;stroke:#e0692e;stroke-width:1.13056839;stroke-miterlimit:4;stroke-dasharray:none;stroke-opacity:1"
       d="M 3.7722864,283.39883 H 17.086022 v 0.89538 H 3.7722864 Z"
       id="rect4524-9-5-4"
       inkscape:connector-curvature="0"
       inkscape:export-xdpi="101.28826"
       inkscape:export-ydpi="101.28826" />
    <path
       style="fill:#e0692e;fill-opacity:1;stroke:#e0692e;stroke-width:1.13056839;stroke-miterlimit:4;stroke-dasharray:none;stroke-opacity:1"
       d="M 3.2849731,281.08575 H 16.598707 v 0.89536 H 3.2849731 Z"
       id="rect4524-9-5-0"
       inkscape:connector-curvature="0"
       inkscape:export-xdpi="101.28826"
       inkscape:export-ydpi="101.28826" />
    <path
       style="fill:#e0692e;fill-opacity:1;stroke:#e0692e;stroke-width:1.02808154;stroke-miterlimit:4;stroke-dasharray:none;stroke-opacity:1"
       d="M 3.9372415,278.86687 H 15.70697 v 0.83753 H 3.9372415 Z"
       id="rect4524-9-5-0-3"
       inkscape:connector-curvature="0"
       inkscape:export-xdpi="101.28826"
       inkscape:export-ydpi="101.28826" />
    <path
       style="fill:#e0692e;fill-opacity:1;stroke:#e0692e;stroke-width:1.02808154;stroke-miterlimit:4;stroke-dasharray:none;stroke-opacity:1"
       d="M 5.1513192,276.68434 H 16.921048 v 0.83754 H 5.1513192 Z"
       id="rect4524-9-5-0-3-3"
       inkscape:connector-curvature="0"
       inkscape:export-xdpi="101.28826"
       inkscape:export-ydpi="101.28826" />
    <text
       xml:space="preserve"
       style="font-style:normal;font-weight:normal;font-size:10.58333302px;line-height:1.25;font-family:sans-serif;letter-spacing:0px;word-spacing:0px;fill:#000000;fill-opacity:1;stroke:none;stroke-width:0.26458332"
       x="85.483269"
       y="265.98599"
       id="text4743"
       inkscape:export-xdpi="101.28826"
       inkscape:export-ydpi="101.28826"><tspan
         sodipodi:role="line"
         id="tspan4741"
         x="85.483269"
         y="275.64148"
         style="font-style:normal;font-variant:normal;font-weight:500;font-stretch:normal;font-size:42.33333206px;font-family:raleway;-inkscape-font-specification:'raleway Medium';stroke-width:0.26458332" /></text>
    <g
       aria-label="finEnce"
       style="font-style:normal;font-variant:normal;font-weight:normal;font-stretch:normal;font-size:3.08317924px;line-height:1.25;font-family:'Open Sans';-inkscape-font-specification:'Open Sans';letter-spacing:0px;word-spacing:0px;fill:#4d4d4d;fill-opacity:1;stroke:none;stroke-width:0.07707949"
       id="text833"
       transform="matrix(0.62416902,0,0,0.62416902,0.18406573,112.37464)"
       inkscape:export-xdpi="101.28826"
       inkscape:export-ydpi="101.28826">
      <g
         aria-label="finEnce"
         style="font-style:normal;font-weight:normal;font-size:28.26707458px;line-height:1.25;font-family:sans-serif;letter-spacing:0px;word-spacing:0px;fill:#000000;fill-opacity:1;stroke:none;stroke-width:0.05447029"
         id="text853"
         transform="matrix(1.6346524,0,0,1.6346524,-0.64992919,-189.46332)">
        <path
           d="m 26.771682,283.82341 h -0.802785 v -0.78017 h 0.802785 v -0.12438 q 0,-0.44096 0.135682,-0.85932 0.135682,-0.41835 0.407046,-0.74625 0.271364,-0.32789 0.678409,-0.53142 0.407046,-0.20352 0.961081,-0.20352 0.633183,0 1.096763,0.20352 0.474887,0.19222 0.757557,0.38443 l -0.429659,0.73495 q -0.226137,-0.19222 -0.587955,-0.3279 -0.361819,-0.13568 -0.780172,-0.13568 -0.327898,0 -0.565341,0.13568 -0.226137,0.12438 -0.384433,0.3279 -0.146988,0.20352 -0.226136,0.46358 -0.06784,0.26006 -0.06784,0.52011 v 0.1583 h 3.018924 v 5.90216 h -0.995001 v -5.12199 h -2.023923 v 5.12199 h -0.995001 z"
           style="font-style:normal;font-variant:normal;font-weight:500;font-stretch:normal;font-size:11.30683041px;font-family:Raleway;-inkscape-font-specification:'Raleway Medium';fill:#4d4d4d;fill-opacity:1;stroke-width:0.05447029"
           id="path918"
           inkscape:connector-curvature="0" />
        <path
           d="m 37.517587,288.9454 h -0.995001 v -3.30159 q 0,-0.94977 -0.293977,-1.37943 -0.282671,-0.42966 -0.870626,-0.42966 -0.305285,0 -0.610569,0.12437 -0.305284,0.11307 -0.576648,0.31659 -0.271364,0.20353 -0.474887,0.4862 -0.203523,0.28267 -0.305285,0.62187 v 3.56165 h -0.995001 v -5.90216 h 0.904547 v 1.26636 q 0.350511,-0.62187 1.006308,-0.995 0.667103,-0.37312 1.447274,-0.37312 0.508807,0 0.848012,0.19221 0.339205,0.18091 0.542728,0.52012 0.203523,0.3279 0.282671,0.78017 0.09045,0.45227 0.09045,0.98369 z"
           style="font-style:normal;font-variant:normal;font-weight:500;font-stretch:normal;font-size:11.30683041px;font-family:Raleway;-inkscape-font-specification:'Raleway Medium';fill:#4d4d4d;fill-opacity:1;stroke-width:0.05447029"
           id="path920"
           inkscape:connector-curvature="0" />
        <path
           d="m 44.673044,288.04086 v 0.90454 h -5.449892 v -8.02785 h 5.348131 v 0.90455 h -4.330516 v 2.60057 h 3.765174 v 0.84801 h -3.765174 v 2.77018 z"
           style="font-style:normal;font-variant:normal;font-weight:500;font-stretch:normal;font-size:11.30683041px;font-family:Raleway;-inkscape-font-specification:'Raleway Medium';fill:#4d4d4d;fill-opacity:1;stroke-width:0.05447029"
           id="path922"
           inkscape:connector-curvature="0" />
        <path
           d="m 50.966533,288.9454 h -0.995001 v -3.30159 q 0,-0.94977 -0.293978,-1.37943 -0.282671,-0.42966 -0.870626,-0.42966 -0.305284,0 -0.610569,0.12437 -0.305284,0.11307 -0.576648,0.31659 -0.271364,0.20353 -0.474887,0.4862 -0.203523,0.28267 -0.305284,0.62187 v 3.56165 h -0.995001 v -5.90216 h 0.904546 v 1.26636 q 0.350512,-0.62187 1.006308,-0.995 0.667103,-0.37312 1.447274,-0.37312 0.508808,0 0.848013,0.19221 0.339205,0.18091 0.542727,0.52012 0.203523,0.3279 0.282671,0.78017 0.09045,0.45227 0.09045,0.98369 z"
           style="font-style:normal;font-variant:normal;font-weight:500;font-stretch:normal;font-size:11.30683041px;font-family:Raleway;-inkscape-font-specification:'Raleway Medium';fill:#4d4d4d;fill-opacity:1;stroke-width:0.05447029"
           id="path924"
           inkscape:connector-curvature="0" />
        <path
           d="m 52.118064,285.98301 q 0,-0.62187 0.214829,-1.17591 0.21483,-0.55403 0.610569,-0.96108 0.395739,-0.41835 0.938467,-0.65579 0.554035,-0.24875 1.232445,-0.24875 0.881932,0 1.515115,0.39574 0.644489,0.38443 0.972387,1.04022 l -0.972387,0.30529 q -0.226137,-0.41835 -0.633183,-0.64449 -0.407046,-0.23744 -0.904546,-0.23744 -0.407046,0 -0.768865,0.1696 -0.361818,0.15829 -0.621875,0.45227 -0.260057,0.29398 -0.418353,0.68972 -0.146989,0.39574 -0.146989,0.87062 0,0.46358 0.158296,0.87063 0.158295,0.40705 0.418353,0.71233 0.271364,0.29398 0.621875,0.46358 0.361819,0.1696 0.768865,0.1696 0.260057,0 0.508807,-0.0678 0.260057,-0.0791 0.46358,-0.20352 0.21483,-0.12438 0.373126,-0.28267 0.158295,-0.1696 0.226136,-0.36182 l 0.972388,0.29398 q -0.135682,0.3279 -0.384433,0.59926 -0.237443,0.27136 -0.565341,0.46358 -0.327898,0.19222 -0.734944,0.30528 -0.395739,0.11307 -0.836706,0.11307 -0.667103,0 -1.221137,-0.24875 -0.554035,-0.24875 -0.949774,-0.6671 -0.395739,-0.41835 -0.621876,-0.97239 -0.214829,-0.56534 -0.214829,-1.18722 z"
           style="font-style:normal;font-variant:normal;font-weight:500;font-stretch:normal;font-size:11.30683041px;font-family:Raleway;-inkscape-font-specification:'Raleway Medium';fill:#4d4d4d;fill-opacity:1;stroke-width:0.05447029"
           id="path926"
           inkscape:connector-curvature="0" />
        <path
           d="m 61.331186,289.05847 q -0.667103,0 -1.221138,-0.23744 -0.554035,-0.24875 -0.949774,-0.6671 -0.395739,-0.41836 -0.621875,-0.97239 -0.21483,-0.56534 -0.21483,-1.18722 0,-0.62187 0.21483,-1.17591 0.226136,-0.55403 0.621875,-0.97239 0.407046,-0.41835 0.961081,-0.65579 0.554035,-0.24875 1.221138,-0.24875 0.667103,0 1.20983,0.24875 0.554035,0.24875 0.938467,0.6671 0.384433,0.40705 0.587956,0.96108 0.214829,0.54273 0.214829,1.13068 0,0.12438 -0.01131,0.22614 0,0.10176 -0.01131,0.1583 h -4.895858 q 0.03392,0.44096 0.203523,0.80278 0.169603,0.36182 0.440966,0.62188 0.271364,0.26005 0.610569,0.40704 0.350512,0.14699 0.734944,0.14699 0.271364,0 0.531421,-0.0678 0.260057,-0.0791 0.486194,-0.20352 0.226137,-0.12438 0.395739,-0.30529 0.180909,-0.18091 0.271364,-0.40704 l 0.859319,0.23744 q -0.146989,0.3279 -0.407046,0.59926 -0.24875,0.27137 -0.587955,0.47489 -0.327898,0.19222 -0.734944,0.30528 -0.407046,0.11307 -0.848012,0.11307 z m 2.023922,-3.45989 q -0.03392,-0.41835 -0.214829,-0.76886 -0.169603,-0.36182 -0.440967,-0.61057 -0.260057,-0.24875 -0.610569,-0.38443 -0.350511,-0.14699 -0.74625,-0.14699 -0.395739,0 -0.746251,0.14699 -0.350512,0.13568 -0.621876,0.39574 -0.260057,0.24875 -0.429659,0.59926 -0.158296,0.35051 -0.192217,0.76886 z"
           style="font-style:normal;font-variant:normal;font-weight:500;font-stretch:normal;font-size:11.30683041px;font-family:Raleway;-inkscape-font-specification:'Raleway Medium';fill:#4d4d4d;fill-opacity:1;stroke-width:0.05447029"
           id="path928"
           inkscape:connector-curvature="0" />
      </g>
      <text
         xml:space="preserve"
         style="font-style:normal;font-weight:normal;font-size:28.26707458px;line-height:1.25;font-family:sans-serif;letter-spacing:0px;word-spacing:0px;fill:#000000;fill-opacity:1;stroke:none;stroke-width:0.05447029"
         x="29.207212"
         y="302.16599"
         id="text857"><tspan
           sodipodi:role="line"
           id="tspan855"
           x="29.207212"
           y="327.9549"
           style="stroke-width:0.05447029" /></text>
      <g
         aria-label="Makes money more easy."
         style="font-style:normal;font-variant:normal;font-weight:normal;font-stretch:normal;font-size:2.8267076px;line-height:1.25;font-family:sans-serif;-inkscape-font-specification:'Open Sans';letter-spacing:0px;word-spacing:0px;fill:#000000;fill-opacity:1;stroke:none;stroke-width:0.05447029"
         id="text853-0"
         transform="matrix(1.6346524,0,0,1.6346524,-0.64992919,-189.46332)">
        <path
           d="m 28.46531,291.76422 v -1.55186 l -0.667103,1.19004 h -0.144163 l -0.669929,-1.19004 v 1.55186 h -0.254404 v -2.00696 h 0.268537 l 0.726464,1.30311 0.729291,-1.30311 h 0.26571 v 2.00696 z"
           style="font-style:normal;font-variant:normal;font-weight:500;font-stretch:normal;font-size:2.8267076px;font-family:Raleway;-inkscape-font-specification:'Raleway Medium';fill:#4d4d4d;fill-opacity:1;stroke-width:0.05447029"
           id="path879"
           inkscape:connector-curvature="0" />
        <path
           d="m 29.520202,291.79249 q -0.104589,0 -0.195043,-0.0339 -0.09045,-0.0368 -0.158296,-0.0989 -0.06501,-0.0622 -0.104588,-0.14416 -0.03675,-0.0848 -0.03675,-0.18374 0,-0.10176 0.04523,-0.18373 0.04523,-0.0848 0.127202,-0.14416 0.0848,-0.0594 0.197869,-0.0933 0.115895,-0.0339 0.251577,-0.0339 0.107415,0 0.217657,0.0198 0.110242,0.0198 0.195043,0.0537 v -0.11872 q 0,-0.18091 -0.101762,-0.28267 -0.101761,-0.10459 -0.288324,-0.10459 -0.22331,0 -0.469233,0.17243 l -0.08197,-0.16112 q 0.285498,-0.19222 0.573822,-0.19222 0.291151,0 0.452273,0.15547 0.163949,0.15547 0.163949,0.43814 v 0.60209 q 0,0.0876 0.07915,0.0905 v 0.21483 q -0.03957,0.006 -0.06501,0.008 -0.02544,0.003 -0.05371,0.003 -0.07349,0 -0.118722,-0.0424 -0.0424,-0.0452 -0.05088,-0.10742 l -0.0057,-0.10459 q -0.09894,0.13286 -0.251577,0.20353 -0.149815,0.0678 -0.322244,0.0678 z m 0.06501,-0.18656 q 0.132855,0 0.245923,-0.0481 0.115895,-0.0509 0.175256,-0.13285 0.05371,-0.0537 0.05371,-0.11025 v -0.21765 q -0.18091,-0.0707 -0.375952,-0.0707 -0.186563,0 -0.305285,0.0791 -0.115895,0.0792 -0.115895,0.20635 0,0.0622 0.02261,0.11589 0.02544,0.0537 0.06784,0.0933 0.04523,0.0396 0.104588,0.0622 0.05936,0.0226 0.127202,0.0226 z"
           style="font-style:normal;font-variant:normal;font-weight:500;font-stretch:normal;font-size:2.8267076px;font-family:Raleway;-inkscape-font-specification:'Raleway Medium';fill:#4d4d4d;fill-opacity:1;stroke-width:0.05447029"
           id="path881"
           inkscape:connector-curvature="0" />
        <path
           d="m 31.749591,291.76422 -0.508808,-0.72081 -0.28267,0.26571 v 0.4551 h -0.248751 v -2.0635 h 0.248751 v 1.35682 l 0.757557,-0.76603 h 0.274191 l -0.587955,0.61057 0.616222,0.86214 z"
           style="font-style:normal;font-variant:normal;font-weight:500;font-stretch:normal;font-size:2.8267076px;font-family:Raleway;-inkscape-font-specification:'Raleway Medium';fill:#4d4d4d;fill-opacity:1;stroke-width:0.05447029"
           id="path883"
           inkscape:connector-curvature="0" />
        <path
           d="m 32.808811,291.79249 q -0.166776,0 -0.305284,-0.0594 -0.138509,-0.0622 -0.237444,-0.16678 -0.09894,-0.10459 -0.155469,-0.2431 -0.05371,-0.14133 -0.05371,-0.2968 0,-0.15547 0.05371,-0.29398 0.05653,-0.13851 0.155469,-0.24309 0.101762,-0.10459 0.24027,-0.16395 0.138509,-0.0622 0.305285,-0.0622 0.166776,0 0.302457,0.0622 0.138509,0.0622 0.234617,0.16677 0.09611,0.10176 0.146989,0.24027 0.05371,0.13568 0.05371,0.28267 0,0.0311 -0.0028,0.0565 0,0.0254 -0.0028,0.0396 h -1.223964 q 0.0085,0.11024 0.05088,0.2007 0.0424,0.0904 0.110242,0.15547 0.06784,0.065 0.152642,0.10176 0.08763,0.0367 0.183736,0.0367 0.06784,0 0.132855,-0.017 0.06502,-0.0198 0.121549,-0.0509 0.05653,-0.0311 0.09894,-0.0763 0.04523,-0.0452 0.06784,-0.10176 l 0.214829,0.0594 q -0.03675,0.082 -0.101761,0.14982 -0.06219,0.0678 -0.146989,0.11872 -0.08197,0.048 -0.183736,0.0763 -0.101761,0.0283 -0.212003,0.0283 z m 0.505981,-0.86497 q -0.0085,-0.10459 -0.05371,-0.19222 -0.0424,-0.0905 -0.110241,-0.15264 -0.06502,-0.0622 -0.152643,-0.0961 -0.08763,-0.0368 -0.186562,-0.0368 -0.09894,0 -0.186563,0.0368 -0.08763,0.0339 -0.155469,0.0989 -0.06501,0.0622 -0.107415,0.14982 -0.03957,0.0876 -0.04805,0.19222 z"
           style="font-style:normal;font-variant:normal;font-weight:500;font-stretch:normal;font-size:2.8267076px;font-family:Raleway;-inkscape-font-specification:'Raleway Medium';fill:#4d4d4d;fill-opacity:1;stroke-width:0.05447029"
           id="path885"
           inkscape:connector-curvature="0" />
        <path
           d="m 34.345966,291.79249 q -0.178083,0 -0.350512,-0.0537 -0.172429,-0.0565 -0.296804,-0.16112 l 0.107415,-0.16678 q 0.130028,0.0989 0.260057,0.14982 0.130028,0.048 0.27419,0.048 0.161123,0 0.254404,-0.0622 0.09611,-0.065 0.09611,-0.1809 0,-0.0537 -0.02544,-0.0905 -0.02544,-0.0396 -0.07632,-0.0678 -0.05088,-0.0283 -0.130029,-0.0509 -0.07915,-0.0226 -0.183736,-0.048 -0.132855,-0.0339 -0.228963,-0.065 -0.09611,-0.0311 -0.158296,-0.0735 -0.06219,-0.0424 -0.09045,-0.10177 -0.02827,-0.0594 -0.02827,-0.14698 0,-0.11025 0.0424,-0.19505 0.04523,-0.0876 0.121549,-0.14416 0.07632,-0.0594 0.178082,-0.0876 0.104588,-0.0311 0.22331,-0.0311 0.166776,0 0.310938,0.0537 0.144162,0.0537 0.243097,0.14133 l -0.113069,0.14982 q -0.09328,-0.082 -0.209176,-0.12155 -0.115895,-0.0424 -0.237443,-0.0424 -0.135682,0 -0.23179,0.0594 -0.09328,0.0565 -0.09328,0.18374 0,0.0509 0.01696,0.0848 0.01979,0.0339 0.06219,0.0594 0.0424,0.0254 0.107415,0.0452 0.06784,0.0198 0.161122,0.0424 0.146989,0.0339 0.254404,0.0707 0.110242,0.0339 0.180909,0.082 0.0735,0.048 0.107415,0.11307 0.03675,0.065 0.03675,0.15829 0,0.20635 -0.158295,0.3279 -0.158296,0.12155 -0.426833,0.12155 z"
           style="font-style:normal;font-variant:normal;font-weight:500;font-stretch:normal;font-size:2.8267076px;font-family:Raleway;-inkscape-font-specification:'Raleway Medium';fill:#4d4d4d;fill-opacity:1;stroke-width:0.05447029"
           id="path887"
           inkscape:connector-curvature="0" />
        <path
           d="m 38.167807,291.76422 h -0.24875 v -0.8254 q 0,-0.23179 -0.07632,-0.34203 -0.07349,-0.11024 -0.220483,-0.11024 -0.152642,0 -0.27419,0.11024 -0.118722,0.10742 -0.169603,0.27985 v 0.88758 h -0.24875 v -0.8254 q 0,-0.23744 -0.07349,-0.34486 -0.0735,-0.10741 -0.220484,-0.10741 -0.149815,0 -0.271364,0.10741 -0.121548,0.10459 -0.172429,0.27985 v 0.89041 h -0.24875 v -1.47554 h 0.226137 v 0.31659 q 0.09045,-0.16395 0.234616,-0.25158 0.144162,-0.0904 0.325072,-0.0904 0.186562,0 0.293977,0.10176 0.110242,0.0989 0.135682,0.25723 0.19787,-0.35899 0.562515,-0.35899 0.127202,0 0.212003,0.048 0.08763,0.0452 0.138509,0.13003 0.05088,0.082 0.07349,0.19504 0.02261,0.11307 0.02261,0.24593 z"
           style="font-style:normal;font-variant:normal;font-weight:500;font-stretch:normal;font-size:2.8267076px;font-family:Raleway;-inkscape-font-specification:'Raleway Medium';fill:#4d4d4d;fill-opacity:1;stroke-width:0.05447029"
           id="path889"
           inkscape:connector-curvature="0" />
        <path
           d="m 39.199069,291.79249 q -0.166775,0 -0.305284,-0.0622 -0.135682,-0.0622 -0.234617,-0.16678 -0.09611,-0.10458 -0.149815,-0.24309 -0.05371,-0.13851 -0.05371,-0.29115 0,-0.15547 0.05371,-0.29398 0.05653,-0.13851 0.152642,-0.2431 0.09894,-0.10459 0.234617,-0.16677 0.138508,-0.0622 0.302457,-0.0622 0.163949,0 0.302458,0.0622 0.138509,0.0622 0.234617,0.16677 0.09893,0.10459 0.152642,0.2431 0.05653,0.13851 0.05653,0.29398 0,0.15264 -0.05371,0.29115 -0.05371,0.13851 -0.152643,0.24309 -0.09893,0.10459 -0.237443,0.16678 -0.135682,0.0622 -0.302458,0.0622 z m -0.48902,-0.76039 q 0,0.1159 0.03675,0.21483 0.03957,0.0989 0.104588,0.17243 0.06784,0.0735 0.155469,0.1159 0.09045,0.0424 0.192216,0.0424 0.101762,0 0.18939,-0.0424 0.09045,-0.0424 0.158295,-0.1159 0.06784,-0.0763 0.104589,-0.17525 0.03957,-0.10176 0.03957,-0.21766 0,-0.11307 -0.03957,-0.212 -0.03675,-0.10176 -0.104589,-0.17526 -0.06784,-0.0763 -0.158295,-0.11872 -0.08763,-0.0424 -0.18939,-0.0424 -0.101761,0 -0.192216,0.0452 -0.08763,0.0424 -0.155469,0.11872 -0.06501,0.0735 -0.104588,0.17525 -0.03675,0.0989 -0.03675,0.21483 z"
           style="font-style:normal;font-variant:normal;font-weight:500;font-stretch:normal;font-size:2.8267076px;font-family:Raleway;-inkscape-font-specification:'Raleway Medium';fill:#4d4d4d;fill-opacity:1;stroke-width:0.05447029"
           id="path891"
           inkscape:connector-curvature="0" />
        <path
           d="m 41.529999,291.76422 h -0.24875 v -0.8254 q 0,-0.23744 -0.0735,-0.34486 -0.07067,-0.10741 -0.217656,-0.10741 -0.07632,0 -0.152642,0.0311 -0.07632,0.0283 -0.144162,0.0792 -0.06784,0.0509 -0.118722,0.12155 -0.05088,0.0707 -0.07632,0.15547 v 0.89041 h -0.24875 v -1.47554 h 0.226136 v 0.31659 q 0.08763,-0.15547 0.251577,-0.24875 0.166776,-0.0933 0.361819,-0.0933 0.127202,0 0.212003,0.048 0.0848,0.0452 0.135682,0.13003 0.05088,0.082 0.07067,0.19504 0.02261,0.11307 0.02261,0.24593 z"
           style="font-style:normal;font-variant:normal;font-weight:500;font-stretch:normal;font-size:2.8267076px;font-family:Raleway;-inkscape-font-specification:'Raleway Medium';fill:#4d4d4d;fill-opacity:1;stroke-width:0.05447029"
           id="path893"
           inkscape:connector-curvature="0" />
        <path
           d="m 42.569785,291.79249 q -0.166775,0 -0.305284,-0.0594 -0.138509,-0.0622 -0.237443,-0.16678 -0.09893,-0.10459 -0.155469,-0.2431 -0.05371,-0.14133 -0.05371,-0.2968 0,-0.15547 0.05371,-0.29398 0.05653,-0.13851 0.155469,-0.24309 0.101761,-0.10459 0.24027,-0.16395 0.138508,-0.0622 0.305284,-0.0622 0.166776,0 0.302458,0.0622 0.138509,0.0622 0.234617,0.16677 0.09611,0.10176 0.146988,0.24027 0.05371,0.13568 0.05371,0.28267 0,0.0311 -0.0028,0.0565 0,0.0254 -0.0028,0.0396 h -1.223964 q 0.0085,0.11024 0.05088,0.2007 0.0424,0.0904 0.110241,0.15547 0.06784,0.065 0.152643,0.10176 0.08763,0.0367 0.183736,0.0367 0.06784,0 0.132855,-0.017 0.06501,-0.0198 0.121548,-0.0509 0.05653,-0.0311 0.09893,-0.0763 0.04523,-0.0452 0.06784,-0.10176 l 0.21483,0.0594 q -0.03675,0.082 -0.101762,0.14982 -0.06219,0.0678 -0.146988,0.11872 -0.08197,0.048 -0.183736,0.0763 -0.101762,0.0283 -0.212004,0.0283 z m 0.505981,-0.86497 q -0.0085,-0.10459 -0.05371,-0.19222 -0.0424,-0.0905 -0.110242,-0.15264 -0.06501,-0.0622 -0.152642,-0.0961 -0.08763,-0.0368 -0.186563,-0.0368 -0.09893,0 -0.186563,0.0368 -0.08763,0.0339 -0.155468,0.0989 -0.06502,0.0622 -0.107415,0.14982 -0.03957,0.0876 -0.04805,0.19222 z"
           style="font-style:normal;font-variant:normal;font-weight:500;font-stretch:normal;font-size:2.8267076px;font-family:Raleway;-inkscape-font-specification:'Raleway Medium';fill:#4d4d4d;fill-opacity:1;stroke-width:0.05447029"
           id="path895"
           inkscape:connector-curvature="0" />
        <path
           d="m 43.613327,292.16561 q 0.03675,0.006 0.07349,0.008 0.03675,0.003 0.05653,0.003 0.03392,0 0.05936,-0.017 0.02827,-0.0141 0.05371,-0.0594 0.02827,-0.0452 0.06219,-0.1272 0.03392,-0.0792 0.0848,-0.20918 l -0.624702,-1.47554 h 0.25723 l 0.503154,1.25223 0.457927,-1.25223 h 0.237443 l -0.717983,1.8628 q -0.03957,0.0989 -0.132856,0.17243 -0.09045,0.0763 -0.251577,0.0763 -0.02544,0 -0.05371,-0.003 -0.02544,-0.003 -0.06501,-0.0113 z"
           style="font-style:normal;font-variant:normal;font-weight:500;font-stretch:normal;font-size:2.8267076px;font-family:Raleway;-inkscape-font-specification:'Raleway Medium';fill:#4d4d4d;fill-opacity:1;stroke-width:0.05447029"
           id="path897"
           inkscape:connector-curvature="0" />
        <path
           d="m 47.950866,291.76422 h -0.24875 v -0.8254 q 0,-0.23179 -0.07632,-0.34203 -0.07349,-0.11024 -0.220484,-0.11024 -0.152642,0 -0.27419,0.11024 -0.118722,0.10742 -0.169603,0.27985 v 0.88758 h -0.24875 v -0.8254 q 0,-0.23744 -0.07349,-0.34486 -0.0735,-0.10741 -0.220484,-0.10741 -0.149815,0 -0.271363,0.10741 -0.121549,0.10459 -0.17243,0.27985 v 0.89041 h -0.24875 v -1.47554 h 0.226137 v 0.31659 q 0.09045,-0.16395 0.234616,-0.25158 0.144163,-0.0904 0.325072,-0.0904 0.186562,0 0.293977,0.10176 0.110242,0.0989 0.135682,0.25723 0.19787,-0.35899 0.562515,-0.35899 0.127202,0 0.212003,0.048 0.08763,0.0452 0.138509,0.13003 0.05088,0.082 0.07349,0.19504 0.02261,0.11307 0.02261,0.24593 z"
           style="font-style:normal;font-variant:normal;font-weight:500;font-stretch:normal;font-size:2.8267076px;font-family:Raleway;-inkscape-font-specification:'Raleway Medium';fill:#4d4d4d;fill-opacity:1;stroke-width:0.05447029"
           id="path899"
           inkscape:connector-curvature="0" />
        <path
           d="m 48.982127,291.79249 q -0.166775,0 -0.305284,-0.0622 -0.135682,-0.0622 -0.234617,-0.16678 -0.09611,-0.10458 -0.149815,-0.24309 -0.05371,-0.13851 -0.05371,-0.29115 0,-0.15547 0.05371,-0.29398 0.05653,-0.13851 0.152642,-0.2431 0.09893,-0.10459 0.234617,-0.16677 0.138508,-0.0622 0.302457,-0.0622 0.16395,0 0.302458,0.0622 0.138509,0.0622 0.234617,0.16677 0.09893,0.10459 0.152642,0.2431 0.05653,0.13851 0.05653,0.29398 0,0.15264 -0.05371,0.29115 -0.05371,0.13851 -0.152642,0.24309 -0.09894,0.10459 -0.237444,0.16678 -0.135682,0.0622 -0.302458,0.0622 z m -0.48902,-0.76039 q 0,0.1159 0.03675,0.21483 0.03957,0.0989 0.104588,0.17243 0.06784,0.0735 0.155469,0.1159 0.09046,0.0424 0.192216,0.0424 0.101762,0 0.18939,-0.0424 0.09045,-0.0424 0.158296,-0.1159 0.06784,-0.0763 0.104588,-0.17525 0.03957,-0.10176 0.03957,-0.21766 0,-0.11307 -0.03957,-0.212 -0.03675,-0.10176 -0.104588,-0.17526 -0.06784,-0.0763 -0.158296,-0.11872 -0.08763,-0.0424 -0.18939,-0.0424 -0.101761,0 -0.192216,0.0452 -0.08763,0.0424 -0.155469,0.11872 -0.06501,0.0735 -0.104588,0.17525 -0.03675,0.0989 -0.03675,0.21483 z"
           style="font-style:normal;font-variant:normal;font-weight:500;font-stretch:normal;font-size:2.8267076px;font-family:Raleway;-inkscape-font-specification:'Raleway Medium';fill:#4d4d4d;fill-opacity:1;stroke-width:0.05447029"
           id="path901"
           inkscape:connector-curvature="0" />
        <path
           d="m 50.812731,290.50634 q -0.186563,0.006 -0.330725,0.0961 -0.141335,0.0905 -0.200696,0.25158 v 0.9102 h -0.24875 v -1.47554 h 0.23179 v 0.34203 q 0.07632,-0.15264 0.200696,-0.24592 0.124375,-0.0961 0.26571,-0.10742 0.02827,0 0.04805,0 0.01979,0 0.03392,0.003 z"
           style="font-style:normal;font-variant:normal;font-weight:500;font-stretch:normal;font-size:2.8267076px;font-family:Raleway;-inkscape-font-specification:'Raleway Medium';fill:#4d4d4d;fill-opacity:1;stroke-width:0.05447029"
           id="path903"
           inkscape:connector-curvature="0" />
        <path
           d="m 51.679292,291.79249 q -0.166776,0 -0.305284,-0.0594 -0.138509,-0.0622 -0.237444,-0.16678 -0.09893,-0.10459 -0.155469,-0.2431 -0.05371,-0.14133 -0.05371,-0.2968 0,-0.15547 0.05371,-0.29398 0.05653,-0.13851 0.155469,-0.24309 0.101762,-0.10459 0.24027,-0.16395 0.138509,-0.0622 0.305285,-0.0622 0.166776,0 0.302457,0.0622 0.138509,0.0622 0.234617,0.16677 0.09611,0.10176 0.146989,0.24027 0.05371,0.13568 0.05371,0.28267 0,0.0311 -0.0028,0.0565 0,0.0254 -0.0028,0.0396 h -1.223964 q 0.0085,0.11024 0.05088,0.2007 0.0424,0.0904 0.110242,0.15547 0.06784,0.065 0.152642,0.10176 0.08763,0.0367 0.183736,0.0367 0.06784,0 0.132855,-0.017 0.06501,-0.0198 0.121549,-0.0509 0.05653,-0.0311 0.09893,-0.0763 0.04523,-0.0452 0.06784,-0.10176 l 0.214829,0.0594 q -0.03675,0.082 -0.101761,0.14982 -0.06219,0.0678 -0.146989,0.11872 -0.08197,0.048 -0.183736,0.0763 -0.101761,0.0283 -0.212003,0.0283 z m 0.505981,-0.86497 q -0.0085,-0.10459 -0.05371,-0.19222 -0.0424,-0.0905 -0.110241,-0.15264 -0.06502,-0.0622 -0.152643,-0.0961 -0.08763,-0.0368 -0.186562,-0.0368 -0.09893,0 -0.186563,0.0368 -0.08763,0.0339 -0.155469,0.0989 -0.06501,0.0622 -0.107415,0.14982 -0.03957,0.0876 -0.04805,0.19222 z"
           style="font-style:normal;font-variant:normal;font-weight:500;font-stretch:normal;font-size:2.8267076px;font-family:Raleway;-inkscape-font-specification:'Raleway Medium';fill:#4d4d4d;fill-opacity:1;stroke-width:0.05447029"
           id="path905"
           inkscape:connector-curvature="0" />
        <path
           d="m 54.069848,291.79249 q -0.166775,0 -0.305284,-0.0594 -0.138509,-0.0622 -0.237443,-0.16678 -0.09894,-0.10459 -0.155469,-0.2431 -0.05371,-0.14133 -0.05371,-0.2968 0,-0.15547 0.05371,-0.29398 0.05653,-0.13851 0.155469,-0.24309 0.101761,-0.10459 0.24027,-0.16395 0.138508,-0.0622 0.305284,-0.0622 0.166776,0 0.302458,0.0622 0.138508,0.0622 0.234617,0.16677 0.09611,0.10176 0.146988,0.24027 0.05371,0.13568 0.05371,0.28267 0,0.0311 -0.0028,0.0565 0,0.0254 -0.0028,0.0396 h -1.223964 q 0.0085,0.11024 0.05088,0.2007 0.0424,0.0904 0.110241,0.15547 0.06784,0.065 0.152643,0.10176 0.08763,0.0367 0.183736,0.0367 0.06784,0 0.132855,-0.017 0.06501,-0.0198 0.121548,-0.0509 0.05653,-0.0311 0.09893,-0.0763 0.04523,-0.0452 0.06784,-0.10176 l 0.21483,0.0594 q -0.03675,0.082 -0.101762,0.14982 -0.06219,0.0678 -0.146989,0.11872 -0.08197,0.048 -0.183736,0.0763 -0.101761,0.0283 -0.212003,0.0283 z m 0.505981,-0.86497 q -0.0085,-0.10459 -0.05371,-0.19222 -0.0424,-0.0905 -0.110242,-0.15264 -0.06501,-0.0622 -0.152642,-0.0961 -0.08763,-0.0368 -0.186563,-0.0368 -0.09893,0 -0.186563,0.0368 -0.08763,0.0339 -0.155469,0.0989 -0.06501,0.0622 -0.107414,0.14982 -0.03957,0.0876 -0.04805,0.19222 z"
           style="font-style:normal;font-variant:normal;font-weight:500;font-stretch:normal;font-size:2.8267076px;font-family:Raleway;-inkscape-font-specification:'Raleway Medium';fill:#4d4d4d;fill-opacity:1;stroke-width:0.05447029"
           id="path907"
           inkscape:connector-curvature="0" />
        <path
           d="m 55.468494,291.79249 q -0.104588,0 -0.195043,-0.0339 -0.09045,-0.0368 -0.158295,-0.0989 -0.06501,-0.0622 -0.104589,-0.14416 -0.03675,-0.0848 -0.03675,-0.18374 0,-0.10176 0.04523,-0.18373 0.04523,-0.0848 0.127201,-0.14416 0.0848,-0.0594 0.19787,-0.0933 0.115895,-0.0339 0.251577,-0.0339 0.107415,0 0.217656,0.0198 0.110242,0.0198 0.195043,0.0537 v -0.11872 q 0,-0.18091 -0.101761,-0.28267 -0.101762,-0.10459 -0.288324,-0.10459 -0.22331,0 -0.469234,0.17243 l -0.08197,-0.16112 q 0.285497,-0.19222 0.573821,-0.19222 0.291151,0 0.452273,0.15547 0.163949,0.15547 0.163949,0.43814 v 0.60209 q 0,0.0876 0.07915,0.0905 v 0.21483 q -0.03957,0.006 -0.06501,0.008 -0.02544,0.003 -0.05371,0.003 -0.07349,0 -0.118722,-0.0424 -0.0424,-0.0452 -0.05088,-0.10742 l -0.0057,-0.10459 q -0.09893,0.13286 -0.251577,0.20353 -0.149816,0.0678 -0.322245,0.0678 z m 0.06501,-0.18656 q 0.132856,0 0.245924,-0.0481 0.115895,-0.0509 0.175256,-0.13285 0.05371,-0.0537 0.05371,-0.11025 v -0.21765 q -0.180909,-0.0707 -0.375952,-0.0707 -0.186563,0 -0.305284,0.0791 -0.115895,0.0792 -0.115895,0.20635 0,0.0622 0.02261,0.11589 0.02544,0.0537 0.06784,0.0933 0.04523,0.0396 0.104589,0.0622 0.05936,0.0226 0.127201,0.0226 z"
           style="font-style:normal;font-variant:normal;font-weight:500;font-stretch:normal;font-size:2.8267076px;font-family:Raleway;-inkscape-font-specification:'Raleway Medium';fill:#4d4d4d;fill-opacity:1;stroke-width:0.05447029"
           id="path909"
           inkscape:connector-curvature="0" />
        <path
           d="m 57.174943,291.79249 q -0.178083,0 -0.350512,-0.0537 -0.172429,-0.0565 -0.296805,-0.16112 l 0.107415,-0.16678 q 0.130029,0.0989 0.260057,0.14982 0.130029,0.048 0.274191,0.048 0.161122,0 0.254404,-0.0622 0.09611,-0.065 0.09611,-0.1809 0,-0.0537 -0.02544,-0.0905 -0.02544,-0.0396 -0.07632,-0.0678 -0.05088,-0.0283 -0.130028,-0.0509 -0.07915,-0.0226 -0.183736,-0.048 -0.132855,-0.0339 -0.228964,-0.065 -0.09611,-0.0311 -0.158295,-0.0735 -0.06219,-0.0424 -0.09045,-0.10177 -0.02827,-0.0594 -0.02827,-0.14698 0,-0.11025 0.0424,-0.19505 0.04523,-0.0876 0.121548,-0.14416 0.07632,-0.0594 0.178083,-0.0876 0.104588,-0.0311 0.22331,-0.0311 0.166775,0 0.310938,0.0537 0.144162,0.0537 0.243096,0.14133 l -0.113068,0.14982 q -0.09328,-0.082 -0.209176,-0.12155 -0.115895,-0.0424 -0.237444,-0.0424 -0.135682,0 -0.23179,0.0594 -0.09328,0.0565 -0.09328,0.18374 0,0.0509 0.01696,0.0848 0.01979,0.0339 0.06219,0.0594 0.0424,0.0254 0.107415,0.0452 0.06784,0.0198 0.161122,0.0424 0.146989,0.0339 0.254404,0.0707 0.110241,0.0339 0.180909,0.082 0.07349,0.048 0.107415,0.11307 0.03675,0.065 0.03675,0.15829 0,0.20635 -0.158296,0.3279 -0.158295,0.12155 -0.426832,0.12155 z"
           style="font-style:normal;font-variant:normal;font-weight:500;font-stretch:normal;font-size:2.8267076px;font-family:Raleway;-inkscape-font-specification:'Raleway Medium';fill:#4d4d4d;fill-opacity:1;stroke-width:0.05447029"
           id="path911"
           inkscape:connector-curvature="0" />
        <path
           d="m 58.089163,292.16561 q 0.03675,0.006 0.07349,0.008 0.03675,0.003 0.05653,0.003 0.03392,0 0.05936,-0.017 0.02827,-0.0141 0.05371,-0.0594 0.02827,-0.0452 0.06219,-0.1272 0.03392,-0.0792 0.0848,-0.20918 l -0.624702,-1.47554 h 0.25723 l 0.503154,1.25223 0.457927,-1.25223 H 59.3103 l -0.717984,1.8628 q -0.03957,0.0989 -0.132855,0.17243 -0.09045,0.0763 -0.251577,0.0763 -0.02544,0 -0.05371,-0.003 -0.02544,-0.003 -0.06501,-0.0113 z"
           style="font-style:normal;font-variant:normal;font-weight:500;font-stretch:normal;font-size:2.8267076px;font-family:Raleway;-inkscape-font-specification:'Raleway Medium';fill:#4d4d4d;fill-opacity:1;stroke-width:0.05447029"
           id="path913"
           inkscape:connector-curvature="0" />
        <path
           d="m 59.425931,291.76422 v -0.31659 h 0.209176 v 0.31659 z"
           style="font-style:normal;font-variant:normal;font-weight:500;font-stretch:normal;font-size:2.8267076px;font-family:Raleway;-inkscape-font-specification:'Raleway Medium';fill:#4d4d4d;fill-opacity:1;stroke-width:0.05447029"
           id="path915"
           inkscape:connector-curvature="0" />
      </g>
    </g>
  </g>
  <g
     inkscape:groupmode="layer"
     id="layer2"
     inkscape:label="Ebene 2"
     transform="translate(0,-275.30422)">
    <g
       id="g4709"
       transform="matrix(0.39794014,0,0,0.39794014,10.860722,177.90281)">
      <path
         style="fill:#ffffff;stroke:#e0692e;stroke-width:3.7347033;stroke-miterlimit:4;stroke-dasharray:none;stroke-opacity:1"
         d="m 31.971754,275.63721 a 19.663999,20.36272 0 0 1 -19.664,20.36273 19.663999,20.36272 0 0 1 -19.6639989,-20.36273 19.663999,20.36272 0 0 1 19.6639989,-20.36273 19.663999,20.36272 0 0 1 19.664,20.36273 z"
         id="path3713"
         inkscape:connector-curvature="0" />
      <g
         aria-label="$"
         style="font-style:normal;font-weight:normal;font-size:3.08317924px;line-height:1.25;font-family:sans-serif;letter-spacing:0px;word-spacing:0px;fill:#e0692e;fill-opacity:1;stroke:none;stroke-width:0.07707949"
         id="text4522"
         transform="matrix(2.5639519,0,0,2.5639519,39.448418,-465.85013)">
        <path
           d="m -10.531946,292.73564 q -0.496801,0 -1.023711,-0.12545 -0.521893,-0.13048 -0.933385,-0.33622 -0.411492,-0.21077 -0.587129,-0.4416 v 0 l 0.637311,-1.13411 v 0 q 0.386401,0.34625 0.878184,0.53694 0.496802,0.18568 1.02873,0.18568 0.5770929,0 0.8932392,-0.22582 0.3211645,-0.23084 0.3211645,-0.64735 v -0.005 q 0,-0.29105 -0.1455276,-0.46167 -0.1405095,-0.17062 -0.3663283,-0.25091 -0.2258188,-0.0803 -0.5770928,-0.14553 -0.01004,-0.005 -0.02509,-0.005 -0.01004,0 -0.02007,-0.005 -0.01506,-0.005 -0.03513,-0.005 -0.01505,-0.005 -0.03011,-0.005 -0.707566,-0.13048 -1.149167,-0.29608 -0.436583,-0.1656 -0.752729,-0.59716 -0.311128,-0.43658 -0.311128,-1.2395 v -0.005 q 0,-0.70757 0.291055,-1.20939 0.296074,-0.50182 0.853093,-0.76277 0.55702,-0.26596 1.344877,-0.26596 0.3562916,0 0.7276381,0.0903 0.3763647,0.0903 0.7326566,0.26094 0.3613101,0.17062 0.6824746,0.4115 v 0 l -0.5821107,1.16422 v 0 q -0.3763647,-0.29608 -0.7828385,-0.45164 -0.4014557,-0.16058 -0.7778201,-0.16058 -0.531929,0 -0.828003,0.21076 -0.296073,0.20575 -0.296073,0.58211 v 0.005 q 0,0.32618 0.160582,0.51186 0.165601,0.18567 0.406474,0.27098 0.245892,0.0853 0.66742,0.17564 0.005,0 0.01004,0.005 0.005,0 0.01004,0 0.02509,0.005 0.05018,0.01 0.02509,0.005 0.05018,0.01 0.6373106,0.14051 1.058839,0.33622 0.4265466,0.19069 0.7125838,0.62225 0.2860371,0.42655 0.2860371,1.16924 v 0.01 q 0,0.69753 -0.3061099,1.19433 -0.3010917,0.4968 -0.8832024,0.75775 -0.5770925,0.26094 -1.3900406,0.26094 z m -0.541965,-0.39643 h 1.3749859 v 1.20938 h -1.3749859 z m 0,-7.86352 h 1.3749859 v 1.14415 h -1.3749859 z"
           style="font-style:normal;font-variant:normal;font-weight:bold;font-stretch:normal;font-size:10.2772646px;font-family:Bahnschrift;-inkscape-font-specification:'Bahnschrift Bold';fill:#e0692e;fill-opacity:1;stroke-width:0.07707949"
           id="path852"
           inkscape:connector-curvature="0" />
      </g>
    </g>
  </g>
</svg>
